<svg width="156" height="30" viewBox="0 0 156 30" fill="none" xmlns="http://www.w3.org/2000/svg">
<path d="M35.0182 22H30.5296V7.45455H35.2171C36.628 7.45455 37.8354 7.74574 38.8392 8.32812C39.843 8.90578 40.6124 9.73674 41.1474 10.821C41.6825 11.9006 41.95 13.1932 41.95 14.6989C41.95 16.214 41.6801 17.5185 41.1403 18.6122C40.6006 19.7012 39.8146 20.5393 38.7824 21.1264C37.7502 21.7088 36.4955 22 35.0182 22ZM32.2909 20.4375H34.9046C36.1072 20.4375 37.1039 20.2055 37.8946 19.7415C38.6853 19.2775 39.2748 18.617 39.6631 17.7599C40.0513 16.9029 40.2455 15.8826 40.2455 14.6989C40.2455 13.5246 40.0537 12.5137 39.6702 11.6662C39.2867 10.8139 38.7137 10.1605 37.9514 9.70597C37.1891 9.24669 36.2398 9.01705 35.1034 9.01705H32.2909V20.4375ZM44.9046 22V7.45455H53.683V9.01705H46.6659V13.9318H53.2284V15.4943H46.6659V20.4375H53.7966V22H44.9046ZM56.8577 7.45455H58.96L63.9031 19.5284H64.0736L69.0168 7.45455H71.119V22H69.4713V10.9489H69.3293L64.7838 22H63.1929L58.6475 10.9489H58.5054V22H56.8577V7.45455ZM86.9234 14.7273C86.9234 16.2614 86.6464 17.5871 86.0924 18.7045C85.5384 19.822 84.7785 20.6837 83.8126 21.2898C82.8467 21.8958 81.7434 22.1989 80.5029 22.1989C79.2624 22.1989 78.1592 21.8958 77.1933 21.2898C76.2274 20.6837 75.4674 19.822 74.9134 18.7045C74.3595 17.5871 74.0825 16.2614 74.0825 14.7273C74.0825 13.1932 74.3595 11.8674 74.9134 10.75C75.4674 9.63258 76.2274 8.77083 77.1933 8.16477C78.1592 7.55871 79.2624 7.25568 80.5029 7.25568C81.7434 7.25568 82.8467 7.55871 83.8126 8.16477C84.7785 8.77083 85.5384 9.63258 86.0924 10.75C86.6464 11.8674 86.9234 13.1932 86.9234 14.7273ZM85.2188 14.7273C85.2188 13.4678 85.0081 12.4048 84.5867 11.5384C84.1701 10.6719 83.6042 10.0161 82.8893 9.57102C82.1791 9.12595 81.3836 8.90341 80.5029 8.90341C79.6222 8.90341 78.8244 9.12595 78.1095 9.57102C77.3992 10.0161 76.8334 10.6719 76.412 11.5384C75.9953 12.4048 75.787 13.4678 75.787 14.7273C75.787 15.9867 75.9953 17.0497 76.412 17.9162C76.8334 18.7827 77.3992 19.4384 78.1095 19.8835C78.8244 20.3286 79.6222 20.5511 80.5029 20.5511C81.3836 20.5511 82.1791 20.3286 82.8893 19.8835C83.6042 19.4384 84.1701 18.7827 84.5867 17.9162C85.0081 17.0497 85.2188 15.9867 85.2188 14.7273ZM97.0867 11.8153C97.0394 11.2945 96.8287 10.8897 96.4546 10.6009C96.0853 10.3073 95.5574 10.1605 94.8708 10.1605C94.4163 10.1605 94.0375 10.2197 93.7345 10.3381C93.4314 10.4564 93.2041 10.6198 93.0526 10.8281C92.9011 11.0317 92.823 11.2661 92.8183 11.5312C92.8088 11.7491 92.8514 11.9408 92.9461 12.1065C93.0455 12.2723 93.1876 12.419 93.3722 12.5469C93.5616 12.67 93.7889 12.7789 94.0541 12.8736C94.3192 12.9683 94.6175 13.0511 94.9489 13.1222L96.1989 13.4062C96.9186 13.5625 97.5531 13.7708 98.1024 14.0312C98.6563 14.2917 99.1203 14.6018 99.4944 14.9616C99.8732 15.3215 100.16 15.7358 100.354 16.2045C100.548 16.6733 100.647 17.1989 100.652 17.7812C100.647 18.6998 100.415 19.4882 99.956 20.1463C99.4968 20.8045 98.8363 21.3087 97.9745 21.6591C97.1175 22.0095 96.0829 22.1847 94.8708 22.1847C93.654 22.1847 92.5934 22.0024 91.689 21.6378C90.7846 21.2732 90.0815 20.7192 89.5796 19.9759C89.0777 19.2325 88.8197 18.2926 88.8055 17.1562H92.172C92.2004 17.625 92.3258 18.0156 92.5484 18.3281C92.7709 18.6406 93.0763 18.8774 93.4646 19.0384C93.8576 19.1993 94.3121 19.2798 94.8282 19.2798C95.3017 19.2798 95.7041 19.2159 96.0356 19.0881C96.3718 18.9602 96.6298 18.7827 96.8097 18.5554C96.9897 18.3281 97.082 18.0677 97.0867 17.7741C97.082 17.4995 96.9968 17.2652 96.831 17.071C96.6653 16.8722 96.4096 16.7017 96.064 16.5597C95.7231 16.4129 95.2875 16.2779 94.7572 16.1548L93.2373 15.7997C91.9778 15.5109 90.9859 15.0445 90.2614 14.4006C89.537 13.7519 89.1772 12.8759 89.1819 11.7727C89.1772 10.8731 89.4186 10.0848 89.9063 9.40767C90.394 8.73059 91.0687 8.20265 91.9305 7.82386C92.7922 7.44508 93.7747 7.25568 94.8779 7.25568C96.0048 7.25568 96.9826 7.44744 97.8112 7.83097C98.6445 8.20975 99.2908 8.74242 99.7501 9.42898C100.209 10.1155 100.444 10.911 100.453 11.8153H97.0867ZM101.952 10.3097V7.45455H114.246V10.3097H109.835V22H106.369V10.3097H101.952ZM129.027 14.7273C129.027 16.3277 128.72 17.6842 128.104 18.7969C127.489 19.9096 126.655 20.7547 125.604 21.3324C124.558 21.91 123.383 22.1989 122.081 22.1989C120.775 22.1989 119.598 21.9077 118.552 21.3253C117.505 20.7429 116.674 19.8977 116.059 18.7898C115.448 17.6771 115.142 16.3229 115.142 14.7273C115.142 13.1269 115.448 11.7704 116.059 10.6577C116.674 9.54498 117.505 8.69981 118.552 8.12216C119.598 7.54451 120.775 7.25568 122.081 7.25568C123.383 7.25568 124.558 7.54451 125.604 8.12216C126.655 8.69981 127.489 9.54498 128.104 10.6577C128.72 11.7704 129.027 13.1269 129.027 14.7273ZM125.434 14.7273C125.434 13.7803 125.299 12.9801 125.029 12.3267C124.764 11.6733 124.38 11.1785 123.878 10.8423C123.381 10.5062 122.782 10.3381 122.081 10.3381C121.385 10.3381 120.786 10.5062 120.285 10.8423C119.783 11.1785 119.397 11.6733 119.127 12.3267C118.862 12.9801 118.729 13.7803 118.729 14.7273C118.729 15.6742 118.862 16.4744 119.127 17.1278C119.397 17.7812 119.783 18.276 120.285 18.6122C120.786 18.9484 121.385 19.1165 122.081 19.1165C122.782 19.1165 123.381 18.9484 123.878 18.6122C124.38 18.276 124.764 17.7812 125.029 17.1278C125.299 16.4744 125.434 15.6742 125.434 14.7273ZM131.08 22V7.45455H137.089C138.178 7.45455 139.117 7.65104 139.908 8.04403C140.704 8.43229 141.317 8.991 141.748 9.72017C142.178 10.4446 142.394 11.304 142.394 12.2983C142.394 13.3068 142.174 14.1638 141.733 14.8693C141.293 15.5701 140.668 16.1051 139.858 16.4744C139.049 16.839 138.09 17.0213 136.982 17.0213H133.182V14.2514H136.329C136.859 14.2514 137.302 14.1828 137.657 14.0455C138.017 13.9034 138.289 13.6903 138.473 13.4062C138.658 13.1174 138.75 12.7481 138.75 12.2983C138.75 11.8485 138.658 11.4768 138.473 11.1832C138.289 10.8849 138.017 10.6624 137.657 10.5156C137.297 10.3641 136.854 10.2884 136.329 10.2884H134.596V22H131.08ZM139.269 15.3523L142.891 22H139.056L135.505 15.3523H139.269ZM144.322 22V7.45455H154.464V10.3097H147.838V13.2926H153.946V16.1548H147.838V19.1449H154.464V22H144.322Z" fill="white"/>
<path d="M0.0164497 0C0.0131365 0.97625 0.0112728 1.9525 0.00858077 2.92875C-0.0112986 3.95354 -0.082326 4.67875 1.0187 5.1125C2.09509 5.65542 3.17189 6.19771 4.2489 6.73958C5.49115 7.365 6.73278 7.99146 7.97524 8.61667C8.19868 8.72917 8.42212 8.84188 8.64576 8.95438C8.79299 9.02958 8.94768 9.13917 9.10609 9.02542C9.58195 8.78667 10.0578 8.54646 10.5337 8.3075C11.1288 8.00354 11.865 7.68917 11.9973 6.9525C12.1466 6.03875 11.5167 5.73333 10.8093 5.40563C10.0323 5.01458 9.25539 4.62375 8.47823 4.23292C5.65433 2.83583 2.8503 1.35687 0.0164497 0ZM12.4204 6.875C12.3013 7.835 11.9575 8.12875 11.223 8.50521C10.138 9.06167 9.04418 9.60083 7.95578 10.1506C5.66116 11.3035 3.36592 12.4552 1.0713 13.6079C-0.229144 14.1785 0.0297026 14.8544 0.0127223 16.0585C0.0141718 17.164 0.0147931 18.2694 0.0166568 19.375H0.0373645C0.216693 18.4967 1.15827 18.2313 1.84701 17.8481C2.65813 17.441 3.46946 17.0342 4.28037 16.6267C6.6866 15.4181 9.09305 14.2102 11.4995 13.0023C12.7295 12.439 12.4071 11.6546 12.4452 10.5321C12.444 9.31313 12.4431 8.09396 12.4413 6.875H12.4206H12.4204ZM18.5339 11.2867C15.781 12.6688 13.029 14.0527 10.2765 15.4354C9.53516 15.8079 8.79382 16.1804 8.05248 16.5527C7.16682 16.9608 6.31614 17.3792 6.79056 18.526C7.07736 19.0798 7.6756 19.299 8.19267 19.5779C8.63478 19.8013 9.07586 20.0271 9.51797 20.2502C9.69937 20.3869 9.84246 20.2996 10.0176 20.201C10.2924 20.0631 10.567 19.9252 10.8418 19.7873C11.6908 19.361 12.5394 18.9346 13.3882 18.5077C14.8208 17.7879 16.254 17.0688 17.6863 16.3483C18.8265 15.8304 18.6581 15.1969 18.6573 14.1202C18.6559 13.1635 18.6552 12.2069 18.6536 11.25C18.6035 11.25 18.5788 11.2642 18.5339 11.2867ZM4.20334 17.2035C3.49741 17.5567 2.79232 17.911 2.0866 18.2646C1.21004 18.694 0.0707038 19.2179 0.0139648 20.3406C0.0147931 21.4771 0.0154143 22.6135 0.0164497 23.75C1.00918 23.319 1.94744 22.7646 2.92526 22.299C4.03561 21.771 4.47875 21.5294 4.37335 20.1942C4.37066 19.1781 4.36879 18.1619 4.36507 17.1458C4.30232 17.1458 4.25925 17.1754 4.20334 17.2035ZM6.22876 18.125C6.22544 19.355 6.22358 20.5852 6.22089 21.8152C6.22772 23.0363 6.01485 23.8327 7.36354 24.3454C11.1299 26.2167 14.8769 28.1692 18.6534 30C18.6573 28.8063 18.6598 27.6127 18.6627 26.419C18.7279 25.2606 17.9812 25.0479 17.1115 24.6171C16.4225 24.271 15.7334 23.9252 15.0444 23.5792C13.1449 22.6248 11.245 21.6712 9.34527 20.7171C8.8226 20.4548 8.30015 20.1921 7.77769 19.93C6.67666 19.3844 6.38572 19.1656 6.24946 18.125H6.22876Z" fill="white"/>
</svg>
