<svg width="127" height="120" viewBox="0 0 127 120" fill="none" xmlns="http://www.w3.org/2000/svg">
<path d="M36.5476 0C36.538 2.79858 36.5326 5.59717 36.5248 8.39575C36.4673 11.3335 36.2618 13.4124 39.447 14.6558C42.5608 16.2122 45.6758 17.7668 48.7914 19.3201C52.3851 21.113 55.977 22.9088 59.5712 24.7011C60.2176 25.0236 60.864 25.3467 61.5109 25.6692C61.9369 25.8848 62.3843 26.1989 62.8426 25.8729C64.2192 25.1884 65.5958 24.4998 66.9724 23.8148C68.6941 22.9435 70.8237 22.0423 71.2065 19.9305C71.6384 17.3111 69.8161 16.4356 67.7698 15.4961C65.5221 14.3751 63.2745 13.2547 61.0263 12.1344C52.8572 8.12939 44.7455 3.88971 36.5476 0ZM72.4303 19.7083C72.0859 22.4603 71.0915 23.3024 68.9666 24.3816C65.8277 25.9768 62.6635 27.5224 59.5149 29.0985C52.8769 32.4035 46.2371 35.7049 39.5991 39.0094C35.8371 40.6452 36.5859 42.5825 36.5368 46.0345C36.541 49.2033 36.5428 52.3722 36.5482 55.5417H36.6081C37.1269 53.0238 39.8507 52.2629 41.8431 51.1646C44.1896 49.9977 46.5366 48.8313 48.8825 47.6631C55.8434 44.1986 62.8049 40.7359 69.7664 37.2732C73.3247 35.6583 72.392 33.4098 72.5022 30.192C72.4986 26.6976 72.4962 23.2027 72.4908 19.7083H72.4309H72.4303ZM90.1159 32.3551C82.1522 36.3171 74.1909 40.2844 66.2284 44.2482C64.0838 45.316 61.9393 46.3839 59.7947 47.4511C57.2326 48.6211 54.7717 49.8203 56.1441 53.108C56.9738 54.6954 58.7044 55.3237 60.2002 56.1234C61.4792 56.7636 62.7552 57.411 64.0341 58.0506C64.5589 58.4424 64.9728 58.1921 65.4796 57.9097C66.2745 57.5143 67.0689 57.1189 67.8638 56.7236C70.3199 55.5017 72.7748 54.2791 75.2303 53.0554C79.3744 50.992 83.5204 48.9304 87.664 46.8652C90.9623 45.3805 90.4753 43.5644 90.4729 40.4779C90.4687 37.7355 90.4669 34.993 90.4621 32.25C90.3172 32.25 90.2459 32.2906 90.1159 32.3551ZM48.6597 49.3168C46.6175 50.3291 44.5778 51.345 42.5362 52.3585C40.0005 53.5893 36.7045 55.0914 36.5404 58.3098C36.5428 61.5676 36.5446 64.8255 36.5476 68.0833C39.4194 66.8477 42.1337 65.2585 44.9624 63.9237C48.1744 62.4103 49.4564 61.7175 49.1515 57.8899C49.1437 54.9773 49.1383 52.064 49.1275 49.1514C48.946 49.1514 48.8214 49.2362 48.6597 49.3168ZM54.5189 51.9583C54.5093 55.4843 54.5039 59.0109 54.4961 62.5369C54.5159 66.0372 53.9001 68.3204 57.8017 69.7902C68.6971 75.1544 79.5368 80.7516 90.4615 86C90.4729 82.5779 90.4801 79.1564 90.4885 75.7343C90.6772 72.4138 88.517 71.804 86.0011 70.569C84.008 69.577 82.0144 68.5856 80.0214 67.5936C74.5264 64.8577 69.0301 62.1242 63.5345 59.389C62.0225 58.6371 60.5111 57.884 58.9998 57.1327C55.8146 55.5685 54.973 54.9415 54.5788 51.9583H54.5189Z" fill="white"/>
<path d="M6.35156 115H1.86293V100.455H6.55043C7.96141 100.455 9.1688 100.746 10.1726 101.328C11.1764 101.906 11.9458 102.737 12.4808 103.821C13.0159 104.901 13.2834 106.193 13.2834 107.699C13.2834 109.214 13.0135 110.518 12.4737 111.612C11.9339 112.701 11.148 113.539 10.1158 114.126C9.08357 114.709 7.82884 115 6.35156 115ZM3.62429 113.438H6.23793C7.44058 113.438 8.43726 113.205 9.22798 112.741C10.0187 112.277 10.6082 111.617 10.9964 110.76C11.3847 109.903 11.5788 108.883 11.5788 107.699C11.5788 106.525 11.3871 105.514 11.0036 104.666C10.62 103.814 10.0471 103.161 9.2848 102.706C8.52249 102.247 7.57315 102.017 6.43679 102.017H3.62429V113.438ZM16.2379 115V100.455H25.0163V102.017H17.9993V106.932H24.5618V108.494H17.9993V113.438H25.13V115H16.2379ZM28.1911 100.455H30.2933L35.2365 112.528H35.407L40.3501 100.455H42.4524V115H40.8047V103.949H40.6626L36.1172 115H34.5263L29.9808 103.949H29.8388V115H28.1911V100.455ZM58.2567 107.727C58.2567 109.261 57.9798 110.587 57.4258 111.705C56.8718 112.822 56.1119 113.684 55.146 114.29C54.18 114.896 53.0768 115.199 51.8363 115.199C50.5958 115.199 49.4925 114.896 48.5266 114.29C47.5607 113.684 46.8008 112.822 46.2468 111.705C45.6928 110.587 45.4158 109.261 45.4158 107.727C45.4158 106.193 45.6928 104.867 46.2468 103.75C46.8008 102.633 47.5607 101.771 48.5266 101.165C49.4925 100.559 50.5958 100.256 51.8363 100.256C53.0768 100.256 54.18 100.559 55.146 101.165C56.1119 101.771 56.8718 102.633 57.4258 103.75C57.9798 104.867 58.2567 106.193 58.2567 107.727ZM56.5522 107.727C56.5522 106.468 56.3415 105.405 55.9201 104.538C55.5034 103.672 54.9376 103.016 54.2227 102.571C53.5124 102.126 52.717 101.903 51.8363 101.903C50.9556 101.903 50.1578 102.126 49.4428 102.571C48.7326 103.016 48.1668 103.672 47.7454 104.538C47.3287 105.405 47.1204 106.468 47.1204 107.727C47.1204 108.987 47.3287 110.05 47.7454 110.916C48.1668 111.783 48.7326 112.438 49.4428 112.884C50.1578 113.329 50.9556 113.551 51.8363 113.551C52.717 113.551 53.5124 113.329 54.2227 112.884C54.9376 112.438 55.5034 111.783 55.9201 110.916C56.3415 110.05 56.5522 108.987 56.5522 107.727ZM68.4201 104.815C68.3728 104.295 68.1621 103.89 67.788 103.601C67.4187 103.307 66.8907 103.161 66.2042 103.161C65.7496 103.161 65.3709 103.22 65.0678 103.338C64.7648 103.456 64.5375 103.62 64.386 103.828C64.2345 104.032 64.1564 104.266 64.1516 104.531C64.1422 104.749 64.1848 104.941 64.2795 105.107C64.3789 105.272 64.521 105.419 64.7056 105.547C64.895 105.67 65.1223 105.779 65.3874 105.874C65.6526 105.968 65.9509 106.051 66.2823 106.122L67.5323 106.406C68.252 106.562 68.8865 106.771 69.4357 107.031C69.9897 107.292 70.4537 107.602 70.8278 107.962C71.2066 108.321 71.493 108.736 71.6871 109.205C71.8813 109.673 71.9807 110.199 71.9854 110.781C71.9807 111.7 71.7487 112.488 71.2894 113.146C70.8301 113.804 70.1696 114.309 69.3079 114.659C68.4509 115.009 67.4163 115.185 66.2042 115.185C64.9873 115.185 63.9267 115.002 63.0224 114.638C62.118 114.273 61.4149 113.719 60.913 112.976C60.4111 112.232 60.1531 111.293 60.1388 110.156H63.5053C63.5337 110.625 63.6592 111.016 63.8817 111.328C64.1043 111.641 64.4097 111.877 64.7979 112.038C65.1909 112.199 65.6455 112.28 66.1616 112.28C66.6351 112.28 67.0375 112.216 67.369 112.088C67.7051 111.96 67.9632 111.783 68.1431 111.555C68.323 111.328 68.4154 111.068 68.4201 110.774C68.4154 110.5 68.3301 110.265 68.1644 110.071C67.9987 109.872 67.743 109.702 67.3974 109.56C67.0565 109.413 66.6209 109.278 66.0906 109.155L64.5707 108.8C63.3112 108.511 62.3192 108.045 61.5948 107.401C60.8704 106.752 60.5105 105.876 60.5153 104.773C60.5105 103.873 60.752 103.085 61.2397 102.408C61.7274 101.731 62.4021 101.203 63.2638 100.824C64.1256 100.445 65.1081 100.256 66.2113 100.256C67.3382 100.256 68.3159 100.447 69.1445 100.831C69.9779 101.21 70.6242 101.742 71.0835 102.429C71.5427 103.116 71.7771 103.911 71.7866 104.815H68.4201ZM73.2852 103.31V100.455H85.5792V103.31H81.1687V115H77.7028V103.31H73.2852ZM100.361 107.727C100.361 109.328 100.053 110.684 99.4375 111.797C98.822 112.91 97.9886 113.755 96.9375 114.332C95.8911 114.91 94.7169 115.199 93.4148 115.199C92.108 115.199 90.9313 114.908 89.8849 114.325C88.8385 113.743 88.0076 112.898 87.392 111.79C86.7812 110.677 86.4759 109.323 86.4759 107.727C86.4759 106.127 86.7812 104.77 87.392 103.658C88.0076 102.545 88.8385 101.7 89.8849 101.122C90.9313 100.545 92.108 100.256 93.4148 100.256C94.7169 100.256 95.8911 100.545 96.9375 101.122C97.9886 101.7 98.822 102.545 99.4375 103.658C100.053 104.77 100.361 106.127 100.361 107.727ZM96.767 107.727C96.767 106.78 96.6321 105.98 96.3622 105.327C96.0971 104.673 95.7135 104.179 95.2116 103.842C94.7145 103.506 94.1155 103.338 93.4148 103.338C92.7188 103.338 92.1198 103.506 91.6179 103.842C91.116 104.179 90.7301 104.673 90.4602 105.327C90.1951 105.98 90.0625 106.78 90.0625 107.727C90.0625 108.674 90.1951 109.474 90.4602 110.128C90.7301 110.781 91.116 111.276 91.6179 111.612C92.1198 111.948 92.7188 112.116 93.4148 112.116C94.1155 112.116 94.7145 111.948 95.2116 111.612C95.7135 111.276 96.0971 110.781 96.3622 110.128C96.6321 109.474 96.767 108.674 96.767 107.727ZM102.413 115V100.455H108.422C109.511 100.455 110.451 100.651 111.241 101.044C112.037 101.432 112.65 101.991 113.081 102.72C113.512 103.445 113.727 104.304 113.727 105.298C113.727 106.307 113.507 107.164 113.067 107.869C112.626 108.57 112.001 109.105 111.192 109.474C110.382 109.839 109.423 110.021 108.315 110.021H104.516V107.251H107.662C108.192 107.251 108.635 107.183 108.99 107.045C109.35 106.903 109.622 106.69 109.807 106.406C109.991 106.117 110.084 105.748 110.084 105.298C110.084 104.848 109.991 104.477 109.807 104.183C109.622 103.885 109.35 103.662 108.99 103.516C108.63 103.364 108.188 103.288 107.662 103.288H105.929V115H102.413ZM110.602 108.352L114.224 115H110.389L106.838 108.352H110.602ZM115.656 115V100.455H125.798V103.31H119.171V106.293H125.279V109.155H119.171V112.145H125.798V115H115.656Z" fill="white"/>
</svg>
